<svg fill="#ffffff" version="1.1" id="Layer_1" xmlns="http://www.w3.org/2000/svg" xmlns:xlink="http://www.w3.org/1999/xlink" viewBox="0 0 496.00 496.00" xml:space="preserve" stroke="#ffffff" stroke-width="0.004960000000000001"><g id="SVGRepo_bgCarrier" stroke-width="0"></g><g id="SVGRepo_tracerCarrier" stroke-linecap="round" stroke-linejoin="round" stroke="#CCCCCC" stroke-width="1.984"></g><g id="SVGRepo_iconCarrier"> <g> <g> <g> <rect x="16" y="56" width="16" height="16"></rect> <rect x="16" y="88" width="16" height="16"></rect> <rect x="32" y="72" width="16" height="16"></rect> <rect y="72" width="16" height="16"></rect> <rect x="88" y="176" width="16" height="16"></rect> <rect x="384" y="224" width="16" height="16"></rect> <rect x="448" y="320" width="16" height="16"></rect> <rect x="392" y="40" width="16" height="16"></rect> <rect x="296" y="64" width="16" height="16"></rect> <rect x="48" y="272" width="16" height="16"></rect> <rect x="48" y="304" width="16" height="16"></rect> <rect x="64" y="288" width="16" height="16"></rect> <rect x="32" y="288" width="16" height="16"></rect> <rect x="136" width="16" height="16"></rect> <rect x="136" y="32" width="16" height="16"></rect> <rect x="152" y="16" width="16" height="16"></rect> <rect x="120" y="16" width="16" height="16"></rect> <rect x="464" y="128" width="16" height="16"></rect> <rect x="464" y="160" width="16" height="16"></rect> <rect x="480" y="144" width="16" height="16"></rect> <rect x="448" y="144" width="16" height="16"></rect> <path d="M328,176h44.464L256,68.496V32h24V16h-24V0h-16v16h-24v16h24v36.496L123.536,176H168v70.208L43.376,360h53.08l8,136 h287.096l8-136h53.08L328,246.208V176z M164.464,160L248,82.888L331.536,160H312v71.6l-64-58.44l-64,58.44V160H164.464z M280,480 h-64V376h64V480z M411.376,344h-26.92l-8,136H296V360h-96v120h-80.456l-8-136h-26.92L248,194.832L411.376,344z"></path> <path d="M230.624,256C213.744,256,200,269.744,200,286.624c0,8.184,3.184,15.872,8.968,21.656L248,347.312l39.032-39.032 c5.784-5.776,8.968-13.472,8.968-21.656c0-16.88-13.744-30.624-30.624-30.624c-6.296,0-12.304,1.888-17.376,5.392 C242.928,257.888,236.92,256,230.624,256z M265.376,272c8.064,0,14.624,6.56,14.624,14.624c0,3.856-1.56,7.624-4.28,10.344 L248,324.688l-27.72-27.72c-2.72-2.72-4.28-6.488-4.28-10.344c0-8.064,6.56-14.624,14.624-14.624c3.848,0,7.624,1.56,10.344,4.28 l7.032,7.032l7.032-7.032C257.752,273.56,261.52,272,265.376,272z"></path> </g> </g> </g> </g></svg>